<svg width="29" height="29" viewBox="0 0 29 29" fill="none" xmlns="http://www.w3.org/2000/svg">
<g id="ph:flower-bold">
<path id="Vector" d="M24.428 14.4999C25.4449 13.7833 26.1571 12.7122 26.4245 11.4971C26.6919 10.2821 26.4953 9.01099 25.8733 7.93355C25.2512 6.85612 24.2487 6.05026 23.0628 5.67433C21.8768 5.29839 20.5932 5.37957 19.464 5.9019C19.3516 4.66302 18.78 3.51095 17.8615 2.67202C16.943 1.83308 15.744 1.36792 14.5 1.36792C13.256 1.36792 12.057 1.83308 11.1385 2.67202C10.22 3.51095 9.64844 4.66302 9.53603 5.9019C8.40688 5.37957 7.12321 5.29839 5.93725 5.67433C4.75129 6.05026 3.7488 6.85612 3.12675 7.93355C2.50471 9.01099 2.30808 10.2821 2.57552 11.4971C2.84295 12.7122 3.5551 13.7833 4.57204 14.4999C3.55668 15.2173 2.84603 16.2881 2.57952 17.5024C2.31302 18.7167 2.5099 19.9867 3.13155 21.0633C3.75319 22.1399 4.75471 22.9453 5.93959 23.3216C7.12448 23.6978 8.40719 23.6176 9.53603 23.0969C9.64844 24.3357 10.22 25.4878 11.1385 26.3268C12.057 27.1657 13.256 27.6308 14.5 27.6308C15.744 27.6308 16.943 27.1657 17.8615 26.3268C18.78 25.4878 19.3516 24.3357 19.464 23.0969C20.5928 23.6176 21.8755 23.6978 23.0604 23.3216C24.2453 22.9453 25.2468 22.1399 25.8685 21.0633C26.4901 19.9867 26.687 18.7167 26.4205 17.5024C26.154 16.2881 25.4433 15.2173 24.428 14.4999ZM12.2344 14.4999C12.2344 14.0519 12.3673 13.6138 12.6162 13.2412C12.8652 12.8687 13.219 12.5783 13.633 12.4068C14.047 12.2353 14.5025 12.1904 14.942 12.2779C15.3815 12.3653 15.7852 12.5811 16.1021 12.8979C16.4189 13.2148 16.6347 13.6185 16.7221 14.0579C16.8095 14.4974 16.7647 14.953 16.5932 15.367C16.4217 15.781 16.1313 16.1348 15.7587 16.3837C15.3861 16.6327 14.9481 16.7656 14.5 16.7656C13.8991 16.7656 13.3229 16.5269 12.898 16.102C12.4731 15.6771 12.2344 15.1008 12.2344 14.4999ZM20.4303 8.45979C20.688 8.30868 20.9732 8.21005 21.2692 8.16957C21.5652 8.12909 21.8663 8.14757 22.1552 8.22394C22.4441 8.30032 22.715 8.43307 22.9523 8.61457C23.1897 8.79606 23.3888 9.02271 23.5382 9.28147C23.6876 9.54023 23.7843 9.82598 23.8228 10.1223C23.8614 10.4186 23.8409 10.7196 23.7626 11.0079C23.6843 11.2963 23.5498 11.5663 23.3667 11.8024C23.1836 12.0386 22.9557 12.2362 22.6959 12.3839C22.3957 12.5572 21.5042 12.9367 19.2861 13.1111C19.0607 12.3386 18.6518 11.6321 18.0944 11.0517C19.3552 9.21651 20.1301 8.63311 20.4303 8.45979ZM14.5 4.07807C15.1009 4.07807 15.6772 4.31677 16.1021 4.74166C16.5269 5.16655 16.7656 5.74282 16.7656 6.3437C16.7656 6.69034 16.6524 7.6521 15.6906 9.66057C14.9094 9.46762 14.0929 9.46762 13.3117 9.66057C12.3477 7.6521 12.2344 6.69034 12.2344 6.3437C12.2344 5.74282 12.4731 5.16655 12.898 4.74166C13.3229 4.31677 13.8991 4.07807 14.5 4.07807ZM5.4749 9.28901C5.77535 8.76866 6.27019 8.38897 6.85059 8.23346C7.43098 8.07795 8.04937 8.15937 8.56974 8.45979C8.86994 8.63311 9.64478 9.21651 10.9056 11.0517C10.3482 11.6321 9.93937 12.3386 9.71388 13.1111C7.49583 12.9367 6.60431 12.5572 6.30412 12.3839C5.78376 12.0834 5.40407 11.5886 5.24856 11.0082C5.09305 10.4278 5.17447 9.80938 5.4749 9.28901ZM8.56974 20.5401C8.31198 20.6912 8.02687 20.7899 7.73084 20.8303C7.4348 20.8708 7.13368 20.8523 6.84481 20.776C6.55595 20.6996 6.28504 20.5668 6.04769 20.3853C5.81034 20.2038 5.61124 19.9772 5.46184 19.7184C5.31244 19.4597 5.2157 19.1739 5.17719 18.8776C5.13867 18.5813 5.15915 18.2803 5.23744 17.992C5.31572 17.7036 5.45027 17.4336 5.63334 17.1975C5.8164 16.9613 6.04437 16.7637 6.30412 16.616C6.60431 16.4427 7.49583 16.0632 9.71388 15.8888C9.93937 16.6613 10.3482 17.3678 10.9056 17.9482C9.64478 19.7834 8.86994 20.3668 8.56974 20.5401ZM14.5 24.9218C13.8991 24.9218 13.3229 24.6831 12.898 24.2582C12.4731 23.8334 12.2344 23.2571 12.2344 22.6562C12.2344 22.3096 12.3477 21.3478 13.3094 19.3393C14.0907 19.5323 14.9071 19.5323 15.6883 19.3393C16.6524 21.3478 16.7656 22.3096 16.7656 22.6562C16.7656 23.2571 16.5269 23.8334 16.1021 24.2582C15.6772 24.6831 15.1009 24.9218 14.5 24.9218ZM23.5251 19.7109C23.2247 20.2312 22.7298 20.6109 22.1494 20.7664C21.569 20.9219 20.9507 20.8405 20.4303 20.5401C20.1301 20.3668 19.3552 19.7834 18.0944 17.9482C18.6518 17.3678 19.0607 16.6613 19.2861 15.8888C21.5042 16.0632 22.3957 16.4427 22.6959 16.616C23.2163 16.9165 23.596 17.4113 23.7515 17.9917C23.907 18.5721 23.8256 19.1905 23.5251 19.7109Z" fill="#007B59"/>
</g>
</svg>
