<svg width="60" height="60" viewBox="0 0 60 60" fill="none" xmlns="http://www.w3.org/2000/svg">
<circle cx="30" cy="30" r="30" fill="#007B59" fill-opacity="0.3"/>
<circle cx="30.4054" cy="30.4054" r="25.5405" fill="#007B59" fill-opacity="0.69"/>
<path d="M43.1922 30.0007C44.5435 29.0729 45.4898 27.6863 45.8452 26.1133C46.2005 24.5403 45.9392 22.8947 45.1127 21.4999C44.2861 20.105 42.954 19.0618 41.3781 18.5751C39.8022 18.0884 38.0965 18.1935 36.5961 18.8697C36.4467 17.2658 35.6872 15.7744 34.4667 14.6883C33.2462 13.6022 31.653 13 30 13C28.347 13 26.7538 13.6022 25.5333 14.6883C24.3128 15.7744 23.5533 17.2658 23.4039 18.8697C21.9035 18.1935 20.1978 18.0884 18.6219 18.5751C17.046 19.0618 15.7139 20.105 14.8873 21.4999C14.0608 22.8947 13.7995 24.5403 14.1548 26.1133C14.5102 27.6863 15.4565 29.0729 16.8078 30.0007C15.4586 30.9294 14.5143 32.3157 14.1602 33.8877C13.806 35.4597 14.0677 37.1039 14.8937 38.4977C15.7197 39.8914 17.0505 40.9341 18.625 41.4212C20.1995 41.9083 21.9039 41.8045 23.4039 41.1303C23.5533 42.7342 24.3128 44.2256 25.5333 45.3117C26.7538 46.3978 28.347 47 30 47C31.653 47 33.2462 46.3978 34.4667 45.3117C35.6872 44.2256 36.4467 42.7342 36.5961 41.1303C38.0961 41.8045 39.8005 41.9083 41.375 41.4212C42.9495 40.9341 44.2803 39.8914 45.1063 38.4977C45.9323 37.1039 46.194 35.4597 45.8398 33.8877C45.4857 32.3157 44.5414 30.9294 43.1922 30.0007ZM26.9895 30.0007C26.9895 29.4206 27.166 28.8535 27.4968 28.3712C27.8276 27.8889 28.2978 27.5129 28.8479 27.2909C29.398 27.0689 30.0033 27.0108 30.5873 27.124C31.1713 27.2372 31.7077 27.5165 32.1288 27.9267C32.5498 28.3369 32.8365 28.8596 32.9527 29.4285C33.0689 29.9975 33.0092 30.5872 32.7814 31.1232C32.5535 31.6591 32.1676 32.1172 31.6726 32.4395C31.1775 32.7618 30.5954 32.9338 30 32.9338C29.2016 32.9338 28.4358 32.6248 27.8712 32.0747C27.3066 31.5247 26.9895 30.7786 26.9895 30.0007ZM37.8801 22.1811C38.2226 21.9855 38.6014 21.8578 38.9948 21.8054C39.3882 21.753 39.7883 21.7769 40.1722 21.8758C40.556 21.9747 40.916 22.1465 41.2314 22.3815C41.5467 22.6165 41.8113 22.9099 42.0098 23.2449C42.2084 23.5799 42.3369 23.9498 42.3881 24.3334C42.4393 24.717 42.412 25.1067 42.308 25.48C42.204 25.8533 42.0252 26.2028 41.782 26.5085C41.5387 26.8142 41.2358 27.0701 40.8906 27.2612C40.4917 27.4856 39.3071 27.9769 36.3598 28.2028C36.0601 27.2027 35.5169 26.288 34.7762 25.5366C36.4516 23.1608 37.4812 22.4055 37.8801 22.1811ZM30 16.5086C30.7984 16.5086 31.5642 16.8176 32.1288 17.3676C32.6934 17.9177 33.0105 18.6637 33.0105 19.4416C33.0105 19.8904 32.86 21.1355 31.582 23.7357C30.5439 23.4859 29.4591 23.4859 28.421 23.7357C27.14 21.1355 26.9895 19.8904 26.9895 19.4416C26.9895 18.6637 27.3066 17.9177 27.8712 17.3676C28.4358 16.8176 29.2016 16.5086 30 16.5086ZM18.0075 23.2547C18.4067 22.581 19.0643 22.0895 19.8355 21.8881C20.6067 21.6868 21.4285 21.7922 22.1199 22.1811C22.5188 22.4055 23.5484 23.1608 25.2238 25.5366C24.4831 26.288 23.9399 27.2027 23.6402 28.2028C20.6929 27.9769 19.5083 27.4856 19.1094 27.2612C18.4179 26.8723 17.9134 26.2316 17.7068 25.4803C17.5001 24.7289 17.6083 23.9283 18.0075 23.2547ZM22.1199 37.8203C21.7774 38.016 21.3986 38.1436 21.0052 38.196C20.6118 38.2484 20.2117 38.2245 19.8278 38.1257C19.444 38.0268 19.084 37.8549 18.7686 37.62C18.4533 37.385 18.1887 37.0916 17.9902 36.7566C17.7916 36.4216 17.6631 36.0517 17.6119 35.6681C17.5607 35.2845 17.588 34.8948 17.692 34.5215C17.796 34.1482 17.9748 33.7986 18.218 33.4929C18.4613 33.1872 18.7642 32.9314 19.1094 32.7402C19.5083 32.5158 20.6929 32.0246 23.6402 31.7987C23.9399 32.7988 24.4831 33.7135 25.2238 34.4649C23.5484 36.8407 22.5188 37.5959 22.1199 37.8203ZM30 43.4929C29.2016 43.4929 28.4358 43.1839 27.8712 42.6338C27.3066 42.0838 26.9895 41.3377 26.9895 40.5598C26.9895 40.1111 27.14 38.866 28.418 36.2658C29.4561 36.5156 30.5409 36.5156 31.579 36.2658C32.86 38.866 33.0105 40.1111 33.0105 40.5598C33.0105 41.3377 32.6934 42.0838 32.1288 42.6338C31.5642 43.1839 30.7984 43.4929 30 43.4929ZM41.9925 36.7468C41.5933 37.4205 40.9357 37.912 40.1645 38.1133C39.3933 38.3147 38.5715 38.2093 37.8801 37.8203C37.4812 37.5959 36.4516 36.8407 34.7762 34.4649C35.5169 33.7135 36.0601 32.7988 36.3598 31.7987C39.3071 32.0246 40.4917 32.5158 40.8906 32.7402C41.5821 33.1292 42.0866 33.7698 42.2932 34.5212C42.4999 35.2726 42.3917 36.0731 41.9925 36.7468Z" fill="#3E4659"/>
</svg>
