<svg width="65" height="58" viewBox="0 0 65 58" fill="none" xmlns="http://www.w3.org/2000/svg">
<path d="M0.125 57.5V6.87501C0.125 5.01876 0.7865 3.42913 2.1095 2.10613C3.4325 0.78313 5.021 0.122756 6.875 0.125006H47.375C49.2313 0.125006 50.8209 0.786506 52.1439 2.10951C53.4669 3.43251 54.1273 5.02101 54.125 6.87501V24.0031C53.5625 23.8906 53 23.8198 52.4375 23.7905C51.875 23.7613 51.3125 23.7478 50.75 23.75C50.1875 23.75 49.625 23.7646 49.0625 23.7939C48.5 23.8231 47.9375 23.8929 47.375 24.0031V6.87501H6.875V40.625H30.7531C30.6406 41.1875 30.5697 41.75 30.5405 42.3125C30.5112 42.875 30.4977 43.4375 30.5 44C30.5 44.5625 30.5146 45.125 30.5439 45.6875C30.5731 46.25 30.6429 46.8125 30.7531 47.375H10.25L0.125 57.5ZM13.625 20.375H40.625V13.625H13.625V20.375ZM13.625 33.875H30.5V27.125H13.625V33.875ZM47.375 57.5V47.375H37.25V40.625H47.375V30.5H54.125V40.625H64.25V47.375H54.125V57.5H47.375Z" fill="#007B59"/>
</svg>

