<svg width="61" height="62" viewBox="0 0 61 62" fill="none" xmlns="http://www.w3.org/2000/svg">
<path d="M30.2988 59.2736C45.4687 59.2736 57.7656 46.6768 57.7656 31.1369C57.7656 15.597 45.4687 3.00018 30.2988 3.00018C15.1289 3.00018 2.83203 15.597 2.83203 31.1369C2.83203 35.6388 3.86478 39.893 5.69682 43.6662C6.18573 44.6678 6.34778 45.813 6.06487 46.8963L4.4306 53.1595C4.26934 53.7792 4.26995 54.4313 4.43236 55.0507C4.59477 55.67 4.91327 56.2347 5.35593 56.6882C5.79859 57.1416 6.34985 57.4679 6.95443 57.6343C7.55902 57.8006 8.19567 57.8012 8.80057 57.6361L14.9147 55.9619C15.976 55.6883 17.0984 55.8214 18.0706 56.3361C21.8691 58.2737 26.0555 59.2794 30.2988 59.2736Z" stroke="#007B59" stroke-width="5"/>
<path d="M30.298 40.5149C33.3331 40.5149 35.7914 38.4159 35.7914 35.8273C35.7914 33.2387 33.3331 31.1369 30.298 31.1369C27.263 31.1369 24.8047 29.0379 24.8047 26.4465C24.8047 23.8579 27.263 21.7589 30.298 21.7589M30.298 40.5149C27.263 40.5149 24.8047 38.4159 24.8047 35.8273M30.298 40.5149V42.3916M30.298 21.7589V19.8822M30.298 21.7589C33.3331 21.7589 35.7914 23.8579 35.7914 26.4465" stroke="#007B59" stroke-width="5" stroke-linecap="round"/>
</svg>
