<svg width="70" height="70" viewBox="0 0 70 70" fill="none" xmlns="http://www.w3.org/2000/svg">
<path d="M34.9997 66.6666C52.4892 66.6666 66.6663 52.4895 66.6663 35C66.6663 17.5105 52.4892 3.33331 34.9997 3.33331C17.5102 3.33331 3.33301 17.5105 3.33301 35C3.33301 40.0666 4.52367 44.8546 6.63584 49.1011C7.19951 50.2285 7.38634 51.5173 7.06017 52.7365L5.17601 59.7855C4.99009 60.4829 4.99079 61.2169 5.17803 61.9139C5.36528 62.6109 5.73248 63.2465 6.24283 63.7568C6.75318 64.2672 7.38873 64.6344 8.08576 64.8216C8.78278 65.0089 9.51679 65.0096 10.2142 64.8236L17.2632 62.9395C18.4868 62.6315 19.7808 62.7813 20.9017 63.3606C25.2809 65.5413 30.1075 66.6731 34.9997 66.6666Z" stroke="#007B59" stroke-width="5"/>
<path opacity="0.5" d="M35 27.0833L33.3027 28.7427C33.5238 28.9686 33.7879 29.1482 34.0793 29.2707C34.3708 29.3933 34.6838 29.4564 35 29.4564C35.3162 29.4564 35.6292 29.3933 35.9207 29.2707C36.2121 29.1482 36.4762 28.9686 36.6973 28.7427L35 27.0865V27.0833ZM30.2943 42.5082C28.4545 40.9438 26.6052 39.1262 25.234 37.2515C23.8375 35.3357 23.125 33.613 23.125 32.1785H18.375C18.375 35.0792 19.7525 37.7962 21.3992 40.0508C23.0743 42.3467 25.2308 44.4335 27.2195 46.1277L30.2975 42.5082H30.2943ZM23.125 32.1785C23.125 28.673 24.6925 26.83 26.3012 26.2252C27.9415 25.614 30.5508 25.9402 33.3027 28.749L36.6973 25.4272C33.0367 21.6905 28.5242 20.3225 24.6387 21.776C20.7278 23.239 18.375 27.21 18.375 32.1785H23.125ZM42.7805 46.1308C44.7692 44.4398 46.9257 42.3498 48.6008 40.0572C50.2475 37.7993 51.625 35.0823 51.625 32.1817H46.875C46.875 33.6162 46.1625 35.3388 44.766 37.2547C43.3948 39.1325 41.5455 40.947 39.7057 42.5113L42.7805 46.1308ZM51.625 32.1817C51.625 27.21 49.2722 23.239 45.3613 21.776C41.4758 20.3225 36.9633 21.6873 33.3027 25.4272L36.6973 28.7522C39.4492 25.9402 42.0617 25.614 43.6957 26.2252C45.3107 26.8268 46.875 28.6762 46.875 32.1817H51.625ZM27.2195 46.1308C29.6895 48.2303 31.6528 50.0258 35 50.0258V45.2758C33.689 45.2758 33.0462 44.8483 30.2943 42.5082L27.2195 46.1308ZM39.7057 42.5113C36.9538 44.8515 36.311 45.2758 35 45.2758V50.0258C38.3472 50.0258 40.3137 48.2303 42.7805 46.1308L39.7025 42.5113H39.7057Z" fill="#007B59"/>
</svg>
