<svg width="59" height="65" viewBox="0 0 59 65" fill="none" xmlns="http://www.w3.org/2000/svg">
<path d="M27.8958 22.875C27.8958 20.7478 28.7409 18.7076 30.2451 17.2034C31.7493 15.6992 33.7894 14.8542 35.9167 14.8542C39.4458 14.8542 42.4296 17.1321 43.5204 20.2763C43.7771 21.1104 43.9375 21.9767 43.9375 22.875C43.9375 23.9283 43.73 24.9713 43.3269 25.9445C42.9239 26.9176 42.3331 27.8018 41.5883 28.5466C40.8434 29.2914 39.9592 29.8822 38.9861 30.2853C38.013 30.6884 36.97 30.8959 35.9167 30.8959C32.4196 30.8959 29.5 28.6821 28.345 25.57C28.0562 24.7359 27.8958 23.8054 27.8958 22.875ZM7.04167 22.875C7.04167 37.3125 23.34 57.0759 26.2917 60.7654L23.0833 64.5834C23.0833 64.5834 0.625 39.7188 0.625 22.875C0.625 12.7046 7.39458 4.10627 16.6667 1.3471C10.7633 6.64085 7.04167 14.3088 7.04167 22.875ZM35.9167 0.416687C48.3008 0.416687 58.375 10.4588 58.375 22.875C58.375 39.7188 35.9167 64.5834 35.9167 64.5834C35.9167 64.5834 13.4583 39.7188 13.4583 22.875C13.4583 10.4588 23.5325 0.416687 35.9167 0.416687ZM35.9167 6.83335C27.0617 6.83335 19.875 14.02 19.875 22.875C19.875 26.0834 19.875 32.5 35.9167 54.0279C51.9583 32.5 51.9583 26.0834 51.9583 22.875C51.9583 14.02 44.7717 6.83335 35.9167 6.83335Z" fill="#007B59"/>
</svg>
 