<svg width="61" height="62" viewBox="0 0 61 62" fill="none" xmlns="http://www.w3.org/2000/svg">
<path d="M6.75001 61.5C4.89376 61.5 3.30413 60.8385 1.98113 59.5155C0.658131 58.1925 -0.00224427 56.604 5.73005e-06 54.75V7.50001C5.73005e-06 5.64376 0.661506 4.05413 1.98451 2.73113C3.30751 1.40813 4.89601 0.747756 6.75001 0.750006H33.75V5.30626H5.125V56.75H56.8688V34.5H60.75V54.75C60.75 56.6063 60.0885 58.1959 58.7655 59.5189C57.4425 60.8419 55.854 61.5023 54 61.5H6.75001ZM13.5 48H17.5V24.375H13.5V48ZM29.625 48H33.75V31.125V14.25H29.625V48ZM43.2 48H47.25V41.25V34.5H43.2V48Z" fill="#007B59"/>
</svg>
